PathFileType	4	(X/Y/Z)	E:\3-PhD\Data\MocapData\ElaboratedData\009\pre\dynamicElaborations\RunN3\RunN3.trc
DataRate	CameraRate	NumFrames	NumMarkers	Units	OrigDataRate	DataStartFrame
200	200	5	54	mm	200	4.530000e+02
Frame#	Time	FHD			LBHD			RBHD			C7			T10			CLAV			LSHO			LUUPA			LMUPA			LDUPA			LLEP			LMEP			LRAD			LUL			LRFIN			RSHO			RUPA1			RMUPA			RDUPA			RLEP			RMEP			RRAD			RUL			RUFIN			RASI			USACR			LSACR			RSACR			LTHI1			LTHI2			LTHI3			LTHI4			LTIB1			LTIB2			LTIB3			LTIB4			LLMAL			LHEE			LMT1			LMT2			RTHI			RTHI2			RTHI3			RTHI4			RLFC			RTIB1			RTIB2			RTIB3			RTIB4			RLMAL			RHEE			RMT1			RMT2			RMT5		
		X1	Y1	Z1	X2	Y2	Z2	X3	Y3	Z3	X4	Y4	Z4	X5	Y5	Z5	X6	Y6	Z6	X7	Y7	Z7	X8	Y8	Z8	X9	Y9	Z9	X10	Y10	Z10	X11	Y11	Z11	X12	Y12	Z12	X13	Y13	Z13	X14	Y14	Z14	X15	Y15	Z15	X16	Y16	Z16	X17	Y17	Z17	X18	Y18	Z18	X19	Y19	Z19	X20	Y20	Z20	X21	Y21	Z21	X22	Y22	Z22	X23	Y23	Z23	X24	Y24	Z24	X25	Y25	Z25	X26	Y26	Z26	X27	Y27	Z27	X28	Y28	Z28	X29	Y29	Z29	X30	Y30	Z30	X31	Y31	Z31	X32	Y32	Z32	X33	Y33	Z33	X34	Y34	Z34	X35	Y35	Z35	X36	Y36	Z36	X37	Y37	Z37	X38	Y38	Z38	X39	Y39	Z39	X40	Y40	Z40	X41	Y41	Z41	X42	Y42	Z42	X43	Y43	Z43	X44	Y44	Z44	X45	Y45	Z45	X46	Y46	Z46	X47	Y47	Z47	X48	Y48	Z48	X49	Y49	Z49	X50	Y50	Z50	X51	Y51	Z51	X52	Y52	Z52	X53	Y53	Z53	X54	Y54	Z54	

453	2.260000	-652.781069	1495.489112	583.896233	-800.890067	1500.553200	451.679493	-800.192942	1482.078820	580.517935	-868.200651	1386.252698	517.006464	-1077.475281	1100.504820	526.246047	-786.527467	1251.159944	493.744733	-828.921846	1340.949737	373.914432	-953.476580	1220.006823	269.485010	-924.542784	1185.419264	253.087653	-979.767099	1162.931297	240.967548	-1014.664628	1052.335278	206.187334	-1023.141797	1017.392585	275.436098	-756.194916	1002.783870	242.399147	-771.534419	944.119115	201.342930	-688.985264	1010.089303	194.982865	-783.603608	1318.225178	654.299415	-896.403484	1260.191055	776.571289	-896.460104	1215.720106	787.827873	-945.945454	1236.568598	815.295161	-1051.231978	1154.094106	870.645405	-1102.493753	1154.379235	812.412252	-901.709814	970.096836	756.829360	-943.981398	931.139323	795.641158	-841.682955	926.222883	785.460901	-977.097455	876.830337	622.065521	-1118.838397	1003.764559	505.910968	-1121.185346	978.730883	471.494934	-1130.306611	967.695733	528.340773	-884.041381	765.265630	264.173859	-818.994149	711.365378	256.598585	-788.065535	715.043441	293.366110	-818.052049	658.043872	224.603168	-694.745451	397.558910	168.105071	-736.071695	372.501809	94.871826	-700.728467	365.639198	118.648690	-678.876462	283.175034	112.279705	-701.558017	138.941552	26.047687	-778.597713	81.315937	42.342811	-560.843957	67.727289	89.395816	-552.822965	76.233367	43.805923	-961.612398	660.298771	693.664247	-906.901729	637.863605	718.378541	-878.837540	659.276142	725.513249	-873.072977	560.088011	709.322801	-803.862125	487.780964	711.209270	-853.534922	353.371121	555.637381	-964.132045	358.628436	534.840554	-928.902265	332.183835	522.491908	-932.485558	309.261971	467.204066	-1042.136837	300.067815	430.098425	-1083.944365	342.936522	351.510697	-922.790683	180.764847	365.415867	-945.674397	167.581724	397.352468	-1017.720513	165.131055	416.924062	
454	2.265000	-628.167023	1488.116294	587.979601	-775.179164	1493.020711	454.724439	-775.574894	1474.826543	583.727281	-843.281292	1379.429392	519.463895	-1054.015089	1094.265569	525.729811	-762.048355	1243.652096	497.446655	-802.914098	1334.370587	376.922499	-924.520944	1211.185132	271.594715	-894.448827	1177.615633	255.180515	-948.895576	1153.401866	242.802461	-980.008602	1042.051611	207.474606	-988.316522	1006.685617	276.811166	-720.763832	1004.895056	251.514307	-731.985221	945.953523	209.514316	-652.655772	1016.021599	206.046903	-760.720843	1310.367499	658.502665	-876.205961	1250.554913	778.470545	-877.442687	1205.643285	787.427007	-926.695907	1225.903257	815.160924	-1034.786886	1146.863802	867.685799	-1084.635083	1149.554812	808.615182	-894.884058	952.963151	758.711246	-940.692309	916.667029	797.933595	-838.329905	906.837842	790.025196	-953.459162	871.665728	623.071358	-1095.155328	997.735252	505.043694	-1096.996781	972.627550	470.583256	-1106.800699	961.616795	527.364903	-860.458262	758.556390	264.246719	-795.110814	705.034876	256.610244	-764.068963	709.071348	293.082269	-794.002357	651.607667	224.843720	-674.853511	388.493581	167.195231	-717.644618	364.915072	94.486010	-682.372751	357.004191	118.017813	-662.914582	274.380968	111.382748	-691.373170	131.820549	24.878797	-769.452975	75.943763	40.815382	-551.497317	62.819638	87.315444	-543.334954	70.894087	41.590833	-936.661256	657.296001	697.763977	-882.111617	636.208416	723.573935	-854.561691	658.396149	731.107645	-846.068171	559.087570	715.720404	-775.900277	488.811240	720.334101	-817.380557	352.761797	562.908212	-927.339933	354.793854	538.680703	-891.067975	329.395399	527.590619	-892.154258	306.493975	471.659396	-1000.438423	293.836853	431.855185	-1041.202345	334.910471	351.602163	-875.529746	178.194373	372.207983	-899.094482	164.513747	403.447062	-971.313136	159.909272	420.816226	
455	2.270000	-603.966399	1480.864361	592.590789	-749.774735	1485.515670	458.172829	-751.325132	1467.562582	587.277056	-818.689708	1372.489130	522.209674	-1030.616101	1087.918748	525.350548	-737.688369	1236.140895	501.501067	-776.736948	1327.703774	380.221174	-894.827305	1202.152395	273.538519	-863.573547	1169.613808	257.359709	-917.095913	1143.650098	244.451474	-944.350529	1031.664504	208.737546	-952.654530	995.916953	278.130871	-685.338807	1006.729792	261.068724	-692.405422	947.691799	218.264709	-616.514890	1021.580110	217.684078	-738.307540	1302.502417	663.147355	-856.798821	1240.593390	780.419184	-859.279470	1195.269266	786.764283	-908.363301	1214.888288	814.901148	-1019.029592	1139.425607	864.399673	-1067.083748	1144.108974	804.390228	-888.780142	936.295526	761.170224	-937.814190	902.824832	800.576805	-835.749821	888.473198	795.321913	-929.547027	866.346766	623.907599	-1071.503700	991.469961	504.388858	-1072.802809	966.305257	469.874777	-1083.271481	955.271172	526.581772	-837.232785	751.469315	263.967669	-771.689231	698.285297	255.915316	-740.196620	703.061934	291.636845	-770.619079	644.525250	224.903690	-655.717485	378.950949	165.953218	-700.216119	357.217523	93.881235	-665.148805	347.988511	117.205858	-648.662331	265.230758	110.206747	-683.879171	124.859727	23.451128	-762.959906	70.713943	38.951937	-544.838826	58.906536	85.123481	-536.488398	66.470305	39.292581	-911.626617	654.111177	701.763952	-857.257198	634.404846	728.662868	-830.263553	657.358172	736.547651	-819.078667	558.047184	722.041497	-747.830368	489.858900	729.206943	-780.783073	352.095554	570.417924	-889.885263	350.509033	542.773142	-852.555851	326.223733	532.959550	-851.097785	303.356209	476.518615	-957.750524	286.875661	434.113849	-997.473942	325.968048	352.251388	-827.311174	175.359589	379.728277	-851.504325	161.110236	410.256545	-923.635797	154.119286	425.305643	
456	2.275000	-580.185398	1473.778256	597.748669	-724.659249	1478.080086	462.028841	-727.446246	1460.327803	591.165672	-794.415208	1365.493844	525.252818	-1007.324901	1081.567185	525.231297	-713.450531	1228.660540	505.919914	-750.394331	1320.973739	383.845841	-864.331293	1192.975172	275.369549	-831.874677	1161.460525	259.710791	-884.317090	1133.768831	245.970386	-907.698154	1021.269174	210.047745	-916.169210	985.164506	279.448554	-649.945350	1008.320254	271.055500	-652.838613	949.360835	227.604179	-580.590297	1026.786122	229.878183	-716.354833	1294.678062	668.223205	-838.132592	1230.466826	782.418468	-841.885507	1184.778632	785.921817	-890.857259	1203.754722	814.568704	-1003.838134	1131.878028	860.897784	-1049.776517	1138.129597	799.867354	-883.276330	920.206901	764.085252	-935.188738	889.706427	803.471162	-833.772667	871.231104	801.194978	-905.419166	860.884448	624.651283	-1047.969818	985.021553	504.098544	-1048.692193	959.836919	469.516437	-1059.774723	948.702873	526.138771	-814.539574	744.071833	263.328100	-748.965797	691.132169	254.416886	-716.683574	696.937526	288.919686	-748.190058	636.854709	224.625949	-637.379621	369.274064	164.374855	-683.732174	349.748345	93.026527	-649.016945	338.951225	116.155772	-636.087894	256.081560	108.731417	-678.764300	118.415110	21.792302	-758.758767	65.857401	36.796899	-540.565434	56.061348	82.959753	-531.989586	63.055143	37.057307	-886.554363	650.785980	705.656957	-832.373881	632.494292	733.650857	-805.978999	656.195012	741.835025	-792.132684	556.994518	728.241304	-719.643909	490.925635	737.716315	-743.797613	351.408285	578.118811	-851.804276	345.819828	547.158906	-813.370390	322.699537	538.579534	-809.414843	299.900958	481.876639	-914.132360	279.262673	436.979528	-952.814350	316.158838	353.555132	-778.237857	172.353869	388.021992	-802.980600	157.484970	417.864751	-874.787985	147.895070	430.572913	
457	2.280000	-556.821114	1466.906778	603.467382	-699.805359	1470.768687	466.297522	-703.932966	1453.178485	595.395003	-770.440232	1358.523411	528.597366	-984.182274	1075.323085	525.499542	-689.342524	1221.254101	510.717539	-723.889655	1314.214916	387.831109	-832.979306	1183.744444	277.164306	-799.324334	1153.224936	262.331754	-850.522667	1123.873667	247.440159	-870.074058	1010.970586	211.492020	-878.882078	974.514453	280.829701	-614.613515	1009.704590	281.466504	-613.334390	950.994769	237.538786	-544.917132	1031.671192	242.612317	-694.846849	1286.949708	673.716896	-820.135380	1220.355538	784.483635	-825.139253	1174.368075	785.026419	-874.061187	1192.738107	814.238265	-989.091920	1124.326005	857.302562	-1032.647746	1131.723790	795.181413	-878.222448	904.821118	767.347173	-932.663905	877.410374	806.510664	-832.233175	855.196723	807.495883	-881.148371	855.296308	625.397692	-1024.636156	978.468296	504.333968	-1024.756759	953.320402	469.665932	-1036.361193	941.984124	526.197187	-792.537580	736.485602	262.357418	-727.134972	683.670681	252.104149	-693.759413	690.692938	284.936034	-726.927176	628.749507	223.910916	-619.867787	359.863096	162.484059	-668.110310	342.860107	91.913045	-633.880064	330.303024	114.809235	-625.064588	247.325349	106.967243	-675.542597	112.812576	19.992627	-756.376997	61.641982	34.492559	-538.226759	54.210500	80.950487	-529.410093	60.590268	35.001665	-861.479497	647.374392	709.450856	-807.486179	630.525659	738.549033	-781.730944	654.945784	746.978567	-765.248204	555.962863	734.278325	-691.354998	492.024585	745.784622	-706.479392	350.711131	585.958194	-813.143992	340.778229	551.869935	-773.525366	318.858858	544.427741	-767.197588	296.177130	487.797264	-869.642134	271.081330	440.531787	-907.269920	305.544660	355.586135	-728.422209	169.268998	397.131984	-753.617962	153.752702	426.345539	-824.896285	141.381928	436.789698	
